inDegrees=yes
name=ik_S42_A11_T01
DataType=double
version=3
OpenSimVersion=4.3-2021-08-27-4bc7ad9
endheader
time	pelvis_tilt	pelvis_list	pelvis_rotation	pelvis_tx	pelvis_ty	pelvis_tz	hip_flexion_r	hip_adduction_r	hip_rotation_r	knee_angle_r	knee_angle_r_beta	ankle_angle_r	subtalar_angle_r	mtp_angle_r	hip_flexion_l	hip_adduction_l	hip_rotation_l	knee_angle_l	knee_angle_l_beta	ankle_angle_l	subtalar_angle_l	mtp_angle_l	lumbar_extension	lumbar_bending	lumbar_rotation	arm_flex_r	arm_add_r	arm_rot_r	elbow_flex_r	pro_sup_r	wrist_flex_r	wrist_dev_r	arm_flex_l	arm_add_l	arm_rot_l	elbow_flex_l	pro_sup_l	wrist_flex_l	wrist_dev_l
11.87999999999984	-1.087340633909238	-1.400540387165082	22.46977899560686	0	0.9399999999999999	0	39.9132692430978	-9.945470097617948	-9.779080992605232	47.25471922518989	0.8247504375850274	0	0	0	39.9132692430978	-9.945470097617948	-9.779080992605232	47.25471922518989	0.8247504375850274	0	0	0	-0.9023504562799007	-1.176947558899137	16.87676805829981	31.76566093311786	-25.05794248732878	-13.61800556911415	32.02246016505267	83.95305949383513	0	0	7.136818877833098	-4.801471116333187	-15.24987779086932	4.338797485813671	128.799111724846	0	0
11.89999999999984	-1.088126760796787	-1.23033769697809	22.0146200942745	0	0.9399999999999999	0	39.96236015260411	-9.946720662923031	-9.782838003703207	47.3202795380715	0.8258946809034491	0	0	0	39.96236015260411	-9.946720662923031	-9.782838003703207	47.3202795380715	0.8258946809034491	0	0	0	-0.8435990140180706	-1.004168331872852	16.68555296376319	28.27946448778951	-23.45362083984444	-13.55607529061598	29.73460774804531	86.93550297698853	0	0	7.384768658657693	-5.141148108701711	-14.79491425674804	4.292096032444378	128.5015802500073	0	0
11.91999999999983	-1.091711394301956	-1.231355251185103	22.18958921474271	0	0.9399999999999999	0	39.96441993331905	-9.946796227410767	-9.783035739008449	47.32240673190658	0.8259318074396993	0	0	0	39.96441993331905	-9.946796227410767	-9.783035739008449	47.32240673190658	0.8259318074396993	0	0	0	-0.8521621246957949	-1.002252760639784	16.48491874646806	25.11171681259795	-21.8480178402991	-12.83207753927665	30.35326597850231	87.17514425980558	0	0	7.678851907146745	-5.326243502265392	-14.30048142215382	4.44097364844397	128.140578904346	0	0
11.93999999999983	-1.207357251152273	-1.210836038353978	22.26132654048736	0	0.9399999999999999	0	40.00551710040727	-9.947836564725012	-9.786171451470318	47.37709836521466	0.8268863565142187	0	0	0	40.00551710040727	-9.947836564725012	-9.786171451470318	47.37709836521466	0.8268863565142187	0	0	0	-0.9544249245683679	-0.9435998632215814	16.10486628272369	22.60383803132487	-20.1024397763131	-11.47865249747258	25.35173441792944	89.86981275953215	0	0	7.803575174535998	-5.147361829542288	-14.60906976997782	4.952635151415583	128.1079207741111	0	0
11.95999999999983	-1.383306386823494	-1.122436494346778	22.32211393751997	0	0.9399999999999999	0	40.06183450201763	-9.949219097113414	-9.79039212817419	47.45304037681327	0.8282117946572022	0	0	0	40.06183450201763	-9.949219097113414	-9.79039212817419	47.45304037681327	0.8282117946572022	0	0	0	-1.096143179163777	-0.7862795102042506	15.59420510248971	20.10978366002346	-18.76991280619567	-9.085024532758997	26.14873135884861	88.7983048366016	0	0	8.174729698938481	-5.003379966570268	-14.41576165192876	4.964770958202632	127.3277979770917	0	0
11.97999999999983	-1.556066047829769	-1.024196692094373	22.75441699735636	0	0.9399999999999999	0	40.13493609129082	-9.950981026505065	-9.7958166581324	47.55173424212577	0.8299343275584251	0	0	0	40.13493609129082	-9.950981026505065	-9.7958166581324	47.55173424212577	0.8299343275584251	0	0	0	-1.241906259032776	-0.6229416810257725	14.83585000849519	14.5484884304929	-15.46352663335878	-5.727470375271484	24.92275981971887	88.16521406749639	0	0	8.317581379826986	-4.623563896330285	-14.79546128174977	5.481819856697396	127.2195184273514	0	0
11.99999999999983	-1.609456787743829	-0.9894397057342658	22.6217541916433	0	0.9399999999999999	0	40.18896790907259	-9.952241119273342	-9.799752554967618	47.62525917102973	0.831217579650094	0	0	0	40.18896790907259	-9.952241119273342	-9.799752554967618	47.62525917102973	0.831217579650094	0	0	0	-1.279168031093916	-0.5727813664394709	14.83553566095662	12.29985037880653	-13.9073930683055	-5.470810983341683	24.80433338871109	88.69892774058691	0	0	8.78546650005002	-4.655255887804603	-13.60297410500097	5.888710469495148	125.9277986243898	0	0
12.01999999999983	-1.708080990525854	-0.9289254025073064	22.48540632951652	0	0.9399999999999999	0	40.21002048439401	-9.9527639431615	-9.801346631376287	47.65254697154163	0.8316938416146541	0	0	0	40.21002048439401	-9.9527639431615	-9.801346631376287	47.65254697154163	0.8316938416146541	0	0	0	-1.347026713320089	-0.483619279201479	14.75230465008517	10.58079479638721	-12.66240154426608	-5.993827128320854	21.81823412371999	90.78633310383753	0	0	9.066596113097336	-4.530914785500182	-13.27171891457435	5.981429944569833	125.407438267074	0	0
12.03999999999983	-1.750756810485088	-0.8319516520874343	22.06461147817077	0	0.9399999999999999	0	40.21283919400125	-9.952859998083422	-9.801606362211871	47.65548452483506	0.8317451115915773	0	0	0	40.21283919400125	-9.952859998083422	-9.801606362211871	47.65548452483506	0.8317451115915773	0	0	0	-1.347433966441269	-0.3773302172786006	14.88259306625803	10.59226167870545	-12.54870225165281	-5.84286851434943	17.53120399000285	92.38201518952238	0	0	9.191522571053806	-4.394002079042995	-13.16715089445277	6.332352591709236	125.3331811764567	0	0
12.05999999999983	-1.778015838642517	-0.7370985631424145	21.74042689813986	0	0.9399999999999999	0	40.21545917058569	-9.952949662173797	-9.80184851528789	47.65820113666755	0.8317925254125528	0	0	0	40.21545917058569	-9.952949662173797	-9.80184851528789	47.65820113666755	0.8317925254125528	0	0	0	-1.336866425868008	-0.2704924148981801	14.92036338726501	8.798129283092388	-11.64581705901198	-6.252293261275552	15.18620007531031	94.63877367235325	0	0	9.254184325594835	-4.277743006993579	-13.14846361651414	6.69187745697513	125.5000977754205	0	0
12.07999999999983	-1.817191699556729	-0.656168121957503	21.35507941259519	0	0.9399999999999999	0	40.21829677781319	-9.953045748474336	-9.802109007837041	47.66116953726919	0.8318443337765695	0	0	0	40.21829677781319	-9.953045748474336	-9.802109007837041	47.66116953726919	0.8318443337765695	0	0	0	-1.340311706509221	-0.1777401044928095	15.01210533656156	8.807112405038666	-11.34317428132357	-6.271499134143697	8.818169634622532	98.03435140054654	0	0	9.298079352057718	-4.141411918085036	-13.08817902615708	7.068996671745298	125.6870906211222	0	0
12.09999999999983	-1.793952373426165	-0.5411640584628833	21.20830968890757	0	0.9399999999999999	0	40.29951398674778	-9.954887454767658	-9.807934256597559	47.77218056488737	0.8337818417145292	0	0	0	40.29951398674778	-9.954887454767658	-9.807934256597559	47.77218056488737	0.8337818417145292	0	0	0	-1.28269032636235	-0.06940484119614368	14.87403629252433	5.036438886295215	-9.935736550138765	-5.621629450528236	12.44189710274532	97.23927676244394	0	0	9.153510202408627	-3.960679229943297	-12.88707784877964	7.433319276928193	125.7192707024742	0	0
12.11999999999983	-1.711663991624808	-0.4184746078761321	20.81681954623757	0	0.9399999999999999	0	40.30180563830116	-9.954963686536958	-9.808142734052902	47.77456740019476	0.833823499849346	0	0	0	40.30180563830116	-9.954963686536958	-9.808142734052902	47.77456740019476	0.833823499849346	0	0	0	-1.161982082827581	0.009469450886280073	14.92796209037428	4.780035399492937	-9.619199768043	-5.424439699691776	8.503933834975703	98.13959109216101	0	0	8.891021518595407	-3.891410889432278	-12.64435578258303	7.584476955005883	125.4335785685486	0	0
12.13999999999983	-1.615363300853374	-0.3363766099624698	20.68499313109768	0	0.9399999999999999	0	40.37182815508869	-9.956511516209968	-9.81309488597725	47.87048679808077	0.8354976091589874	0	0	0	40.37182815508869	-9.956511516209968	-9.81309488597725	47.87048679808077	0.8354976091589874	0	0	0	-1.048253108061637	0.06021022471447851	14.81308360713284	1.578106482961209	-7.673128131621102	-3.849566281426544	10.20675513431866	96.28833833102917	0	0	8.722579824933796	-3.767956012445747	-11.61934799797226	8.004115972090732	125.0096709822452	0	0
12.15999999999983	-1.600289449245732	-0.316290668172244	20.43659627015874	0	0.9399999999999999	0	40.3739641423033	-9.956581206928737	-9.813287156247489	47.87271241558682	0.8355364535123579	0	0	0	40.3739641423033	-9.956581206928737	-9.813287156247489	47.87271241558682	0.8355364535123579	0	0	0	-1.025868095860489	0.07518103858498235	14.87358008654194	0.4627328341301755	-6.629868342035328	-3.246479225384931	10.15077553172748	95.34658171005411	0	0	8.763247516740449	-3.546987521601594	-11.24770799635128	8.344945841539815	125.690183656058	0	0
12.17999999999983	-1.671931676960801	-0.38290631812896	20.28987913657206	0	0.9399999999999999	0	40.3752511585561	-9.956623058198502	-9.813402770706205	47.87405652257548	0.8355599126048091	0	0	0	40.3752511585561	-9.956623058198502	-9.813402770706205	47.87405652257548	0.8355599126048091	0	0	0	-1.115327055419121	0.03697050034082542	14.93273473342379	-0.02711962106182682	-5.675884171750411	-3.088032155502602	9.85280769257696	94.89429757682494	0	0	9.030831825579439	-3.47955652679327	-10.84769383646363	8.374256102532055	125.5671188032239	0	0
12.19999999999983	-1.716880892906241	-0.4178202531883447	20.17218669505835	0	0.9399999999999999	0	40.37638664468732	-9.956660060063232	-9.813504925275923	47.87523947447043	0.8355805590102688	0	0	0	40.37638664468732	-9.956660060063232	-9.813504925275923	47.87523947447043	0.8355805590102688	0	0	0	-1.169273039722819	0.01853083792433741	14.9843390689282	-0.2036612850554828	-5.110482930464785	-3.202508590616149	9.662191862534497	94.94279611567595	0	0	9.203236382984233	-3.335181634397853	-10.46624370440126	8.497763441629338	125.6362290988114	0	0
12.21999999999983	-1.57956522481041	-0.3599415017004262	19.89047823603678	0	0.9399999999999999	0	40.37832510548683	-9.956723446866144	-9.81367974403339	47.8772509693171	0.8356156662182301	0	0	0	40.37832510548683	-9.956723446866144	-9.81367974403339	47.8772509693171	0.8356156662182301	0	0	0	-1.020447467710312	0.02558083379830649	14.96248123861893	-0.5043298095574673	-4.76599690859943	-3.30067819291741	9.359252753929468	93.36098733695076	0	0	8.942703732053092	-3.223355991317751	-10.30165561366071	8.6764382505733	125.7631862759608	0	0
12.23999999999983	-1.488366231994799	-0.3212651560082866	19.78459570474126	0	0.9399999999999999	0	40.38066225692077	-9.956799780141466	-9.813890393363673	47.87967662684349	0.8356580019285913	0	0	0	40.38066225692077	-9.956799780141466	-9.813890393363673	47.87967662684349	0.8356580019285913	0	0	0	-0.9216973812991552	0.03072574706735793	14.97446894994126	-0.5988116408538147	-4.427268949197029	-3.37505539522581	9.004110734954661	93.5547396964173	0	0	8.813394425702439	-3.13786179360656	-9.989063888731375	8.652403311126205	125.3693879555765	0	0
12.25999999999983	-1.403171724560686	-0.3327829543316869	19.73367766370186	0	0.9399999999999999	0	40.3833584603439	-9.956886746393527	-9.81413144726325	47.88250552626366	0.835707375537681	0	0	0	40.3833584603439	-9.956886746393527	-9.81413144726325	47.88250552626366	0.835707375537681	0	0	0	-0.8456997176845827	-0.009017049517162101	14.96975550745048	-0.5051361488232176	-4.211076308740648	-3.18995745767831	8.735777244088821	94.86494442071073	0	0	8.703450390690328	-2.976367141258537	-9.684139372254741	8.748347436307986	125.4104725063788	0	0
12.27999999999983	-1.562189267142642	-0.5065837603103633	19.91801266281017	0	0.9399999999999999	0	40.38552980659019	-9.956956950537236	-9.814325933258363	47.88477574164792	0.8357469982708658	0	0	0	40.38552980659019	-9.956956950537236	-9.814325933258363	47.88477574164792	0.8357469982708658	0	0	0	-1.055190534688967	-0.1165555128726661	14.87733033182749	0.223553412800659	-4.11187970300874	-2.892229342246481	8.0819530287941	95.88488631267317	0	0	9.184103792343874	-2.897303275455184	-9.312356475369929	8.72216020356073	125.1997945129499	0	0
12.29999999999983	-1.765984572608327	-0.6938612250028779	20.0852906975662	0	0.9399999999999999	0	40.387652748272	-9.957025764025508	-9.814516438297932	47.88698804540368	0.8357856102554579	0	0	0	40.387652748272	-9.957025764025508	-9.814516438297932	47.88698804540368	0.8357856102554579	0	0	0	-1.312012535623637	-0.2200578304977706	14.75990157446567	0.9942935713107059	-4.208983762439977	-2.222971363959245	7.647430325977798	96.70434545922845	0	0	9.682916159171896	-2.752732605751085	-8.983763844976432	8.752716541982268	125.0474747621994	0	0
